<mxfile host="app.diagrams.net" modified="2024-04-07T06:33:09.364Z" agent="Mozilla/5.0 (Windows NT 10.0; Win64; x64) AppleWebKit/537.36 (KHTML, like Gecko) Chrome/123.0.0.0 Safari/537.36" etag="5Nj9t9TfTAQO3R4yhI_Z" version="24.2.2" type="device">
  <diagram name="Page-1" id="iA4G_l_KLWCGSAvUo8tQ">
    <mxGraphModel dx="794" dy="412" grid="1" gridSize="10" guides="1" tooltips="1" connect="1" arrows="1" fold="1" page="1" pageScale="1" pageWidth="850" pageHeight="1100" math="0" shadow="0">
      <root>
        <mxCell id="0" />
        <mxCell id="1" parent="0" />
        <mxCell id="Vjctc2YFFUfOSSJCVvnO-2" value="" style="rounded=1;whiteSpace=wrap;html=1;" vertex="1" parent="1">
          <mxGeometry x="80" y="90" width="620" height="210" as="geometry" />
        </mxCell>
        <mxCell id="Vjctc2YFFUfOSSJCVvnO-3" value="" style="whiteSpace=wrap;html=1;aspect=fixed;" vertex="1" parent="1">
          <mxGeometry x="130" y="130" width="130" height="130" as="geometry" />
        </mxCell>
        <mxCell id="Vjctc2YFFUfOSSJCVvnO-4" value="" style="whiteSpace=wrap;html=1;aspect=fixed;" vertex="1" parent="1">
          <mxGeometry x="330" y="130" width="130" height="130" as="geometry" />
        </mxCell>
        <mxCell id="Vjctc2YFFUfOSSJCVvnO-5" value="" style="whiteSpace=wrap;html=1;aspect=fixed;" vertex="1" parent="1">
          <mxGeometry x="520" y="130" width="130" height="130" as="geometry" />
        </mxCell>
      </root>
    </mxGraphModel>
  </diagram>
</mxfile>
